<?xml version="1.0" encoding="utf-8"?>
<!-- Generator: Adobe Illustrator 16.0.0, SVG Export Plug-In . SVG Version: 6.00 Build 0)  -->
<!DOCTYPE svg PUBLIC "-//W3C//DTD SVG 1.1//EN" "http://www.w3.org/Graphics/SVG/1.1/DTD/svg11.dtd">
<svg version="1.1" id="Layer_1" xmlns="http://www.w3.org/2000/svg" xmlns:xlink="http://www.w3.org/1999/xlink" x="0px" y="0px"
	 width="841.891px" height="595.281px" viewBox="0 0 841.891 595.281" enable-background="new 0 0 841.891 595.281"
	 xml:space="preserve">
<g>
	<path id="Path_944_1_" fill="#4363AC" d="M717.954,298.623c0,57.156-16.331,113.224-47.901,161.124
		c-6.532,10.342-13.608,19.597-21.774,28.849c-18.508,21.775-39.736,40.282-63.144,56.065c-6.531,4.356-13.065,8.168-19.595,11.977
		c-35.383,19.597-74.575,31.573-114.312,35.382c-9.253,1.088-18.507,1.088-27.76,1.088c-25.584,0-51.167-3.266-76.207-9.797
		c-14.152-3.811-27.761-8.711-41.369-14.152c-7.076-2.722-13.608-5.989-20.142-9.801c-15.786-8.163-30.482-17.959-44.634-28.847
		c-6.533-4.9-12.52-10.342-18.508-15.787C103.402,404.224,96.324,217.519,206.824,98.309
		C317.326-20.899,504.03-28.521,623.238,82.524C683.661,138.046,717.954,216.428,717.954,298.623L717.954,298.623z"/>
	<g>
		<path fill="#B5C8EA" d="M428.938,312.19c54.356-0.043,98.66-45.25,98.653-100.659c-0.007-55.707-44.283-99.751-100.205-99.681
			c-55.929,0.07-99.96,44.079-99.982,99.933C327.381,268.294,371.822,312.242,428.938,312.19z"/>
		<path fill="#B5C8EA" d="M635.762,502.406c0.312-68.478-56.384-121.347-56.384-121.347l-0.003,0.002
			c-20.809-24.047-47.6-42.652-80.214-55.975c-5.807-2.369-10.555-1.926-16.439,0.867c-36.682,17.414-73.745,17.412-110.434,0.012
			c-5.87-2.785-10.619-3.285-16.438-0.895c-64.276,26.423-105.798,72.769-123.289,140.281c-0.142,0.551-0.313,1.101-0.493,1.66
			c0.037,0.911-0.077,1.891-0.369,2.923c-1.859,6.558-3.656,13.126-5.437,19.704h-0.002l-0.001,0.014
			c-1.307,4.823-2.605,9.65-3.909,14.472c0.376,0.404,0.765,0.792,1.144,1.192l-1.144,6.483
			c87.146,89.263,204.554,81.298,204.554,81.298c0.025-0.002,0.049-0.004,0.074-0.006c62.706-0.008,119.666-20.095,165.687-53.654
			C622.359,519.769,635.762,502.406,635.762,502.406z"/>
	</g>
</g>
</svg>
