<?xml version="1.0" encoding="utf-8"?>
<!-- Generator: Adobe Illustrator 16.0.0, SVG Export Plug-In . SVG Version: 6.00 Build 0)  -->
<!DOCTYPE svg PUBLIC "-//W3C//DTD SVG 1.1//EN" "http://www.w3.org/Graphics/SVG/1.1/DTD/svg11.dtd">
<svg version="1.1" id="Layer_1" xmlns="http://www.w3.org/2000/svg" xmlns:xlink="http://www.w3.org/1999/xlink" x="0px" y="0px"
	 width="612px" height="792px" viewBox="0 0 612 792" enable-background="new 0 0 612 792" xml:space="preserve">
<path id="Path_944" fill="#4363AC" d="M612.15,427.188c0,59.335-16.953,117.54-49.729,167.269
	c-6.781,10.736-14.127,20.344-22.604,29.95c-19.215,22.604-41.253,41.817-65.553,58.205c-6.781,4.521-13.563,8.477-20.343,12.432
	c-36.731,20.344-77.419,32.776-118.671,36.731c-9.606,1.13-19.213,1.13-28.82,1.13c-26.559,0-53.119-3.39-79.113-10.171
	c-14.692-3.956-28.82-9.042-42.947-14.693c-7.346-2.825-14.127-6.216-20.909-10.171c-16.388-8.477-31.646-18.648-46.338-29.95
	c-6.781-5.086-12.997-10.737-19.213-16.388c-123.756-114.715-131.103-308.543-16.388-432.3
	C196.239,95.476,390.066,87.564,513.822,202.844C576.549,260.484,612.15,341.857,612.15,427.188L612.15,427.188z"/>
<g>
	<path fill-rule="evenodd" clip-rule="evenodd" fill="#B5C8EA" d="M312.109,441.273c56.43-0.047,102.423-46.978,102.416-104.5
		c-0.007-57.832-45.973-103.556-104.026-103.484c-58.064,0.073-103.774,45.761-103.797,103.746
		C206.677,395.702,252.814,441.325,312.109,441.273z"/>
	<path fill-rule="evenodd" clip-rule="evenodd" fill="#B5C8EA" d="M526.823,638.744c0.323-71.089-58.534-125.977-58.534-125.977
		l-0.003,0.003c-21.604-24.963-49.416-44.279-83.276-58.109c-6.026-2.462-10.956-2.001-17.065,0.899
		c-38.081,18.079-76.558,18.076-114.646,0.012c-6.094-2.89-11.025-3.409-17.066-0.927c-66.728,27.43-109.834,75.545-127.992,145.631
		c-0.148,0.573-0.324,1.143-0.512,1.724c0.039,0.948-0.079,1.962-0.383,3.036c-1.93,6.805-3.795,13.627-5.644,20.454H101.7
		l-0.002,0.014c-1.356,5.008-2.704,10.019-4.058,15.026c0.391,0.417,0.794,0.821,1.188,1.236l-1.188,6.732
		c90.471,92.666,212.358,84.399,212.358,84.399c0.025-0.002,0.051-0.005,0.076-0.007c65.099-0.007,124.231-20.86,172.008-55.702
		C512.909,656.77,526.823,638.744,526.823,638.744z"/>
</g>
</svg>
