<?xml version="1.0" encoding="utf-8"?>
<!-- Generator: Adobe Illustrator 16.0.0, SVG Export Plug-In . SVG Version: 6.00 Build 0)  -->
<!DOCTYPE svg PUBLIC "-//W3C//DTD SVG 1.1//EN" "http://www.w3.org/Graphics/SVG/1.1/DTD/svg11.dtd">
<svg version="1.1" id="Layer_1" xmlns="http://www.w3.org/2000/svg" xmlns:xlink="http://www.w3.org/1999/xlink" x="0px" y="0px"
	 width="841.891px" height="595.281px" viewBox="0 0 841.891 595.281" enable-background="new 0 0 841.891 595.281"
	 xml:space="preserve">
<g>
	<path id="Path_944_1_" fill="#4363AC" d="M712.291,297.93c0,56.681-16.195,112.282-47.504,159.784
		c-6.478,10.256-13.495,19.434-21.593,28.609c-18.354,21.594-39.406,39.947-62.619,55.6c-6.478,4.32-12.957,8.101-19.433,11.878
		c-35.088,19.433-73.955,31.31-113.361,35.088c-9.176,1.077-18.354,1.077-27.529,1.077c-25.371,0-50.742-3.237-75.573-9.715
		c-14.035-3.779-27.531-8.638-41.025-14.035c-7.018-2.699-13.495-5.939-19.974-9.718c-15.655-8.096-30.229-17.811-44.264-28.608
		c-6.478-4.858-12.416-10.256-18.354-15.656C102.845,402.654,95.826,217.5,205.407,99.281
		C314.991-18.937,500.144-26.495,618.362,83.627C678.282,138.687,712.291,216.418,712.291,297.93L712.291,297.93z"/>
	<g>
		<path fill="#B5C8EA" d="M425.677,311.385c53.904-0.044,97.84-44.875,97.833-99.824c-0.007-55.244-43.915-98.922-99.372-98.853
			c-55.464,0.07-99.129,43.712-99.151,99.103C324.963,267.853,369.034,311.435,425.677,311.385z"/>
		<path fill="#B5C8EA" d="M630.782,500.019c0.309-67.908-55.915-120.338-55.915-120.338l-0.003,0.002
			c-20.636-23.847-47.204-42.299-79.548-55.51c-5.758-2.35-10.467-1.91-16.303,0.86c-36.377,17.27-73.132,17.268-109.516,0.011
			c-5.821-2.761-10.531-3.258-16.302-0.886c-63.742,26.202-104.919,72.164-122.264,139.114c-0.141,0.548-0.31,1.093-0.489,1.646
			c0.037,0.905-0.076,1.876-0.366,2.899c-1.844,6.503-3.626,13.018-5.392,19.54h-0.002l-0.001,0.014
			c-1.296,4.783-2.583,9.57-3.876,14.353c0.373,0.399,0.758,0.785,1.134,1.181l-1.134,6.431
			c86.422,88.521,202.854,80.622,202.854,80.622c0.025-0.001,0.049-0.004,0.073-0.006c62.186-0.008,118.672-19.928,164.311-53.209
			C617.49,517.239,630.782,500.019,630.782,500.019z"/>
	</g>
</g>
</svg>
